<svg xmlns="http://www.w3.org/2000/svg" width="441" height="88" fill="none" viewBox="0 0 441 88"><path fill="#fff" d="M23.01 37.03C23.01 35.65 22.14 33.76 20.4 31.36L19.59 30.1L19.68 28.93C23.1 28.03 28.26 27.58 35.16 27.58C35.94 28.48 36.33 30.16 36.33 32.62C36.33 35.02 35.58 40.66 34.08 49.54C32.64 58.42 31.41 64.81 30.39 68.71C29.43 72.61 28.41 75.67 27.33 77.89C26.25 80.17 24.54 82.27 22.2 84.19C19.92 86.17 17.49 87.16 14.91 87.16C12.27 87.16 9.84 86.59 7.62 85.45C5.4 84.31 3.72 83.2 2.58 82.12L0.96 80.41L2.94 77.53C5.88 79.27 8.07 80.14 9.51 80.14C11.79 80.14 13.83 78.55 15.63 75.37C17.43 72.19 19.11 65.89 20.67 56.47C22.23 46.99 23.01 40.51 23.01 37.03ZM26.25 17.77C25.05 16.57 24.45 14.98 24.45 13C24.45 11.02 25.26 9.28 26.88 7.78C28.56 6.28 30.48 5.53 32.64 5.53C34.8 5.53 36.48 6.13 37.68 7.33C38.88 8.53 39.48 10.12 39.48 12.1C39.48 14.02 38.61 15.73 36.87 17.23C35.19 18.73 33.3 19.48 31.2 19.48C29.1 19.48 27.45 18.91 26.25 17.77ZM53.3273 68.08C49.1873 68.08 45.9473 66.64 43.6073 63.76C41.2673 60.82 40.0973 56.74 40.0973 51.52C40.0973 44.86 41.8673 39.13 45.4073 34.33C49.0073 29.53 53.9573 27.13 60.2573 27.13L63.4973 27.31C64.5173 26.77 65.6573 26.5 66.9173 26.5C71.6573 26.5 74.0273 30.97 74.0273 39.91C76.4873 39.79 78.9773 39.46 81.4973 38.92L82.9373 38.56L83.4773 42.07C81.4973 42.91 78.8273 43.66 75.4673 44.32L73.6673 44.68C72.5273 50.98 70.2173 56.47 66.7373 61.15C63.2573 65.77 58.7873 68.08 53.3273 68.08ZM58.1873 60.34C60.7073 60.34 62.9573 58.72 64.9373 55.48C66.9773 52.24 68.3873 48.82 69.1673 45.22C62.7473 45.22 59.5373 42.82 59.5373 38.02C59.5373 36.1 59.9273 34.3 60.7073 32.62L61.1573 31.72C60.9173 31.6 60.6173 31.54 60.2573 31.54C59.8973 31.54 59.6273 31.6 59.4473 31.72C57.9473 32.68 56.5373 34.93 55.2173 38.47C53.8973 42.01 53.2373 46.06 53.2373 50.62C53.2373 57.1 54.8873 60.34 58.1873 60.34ZM88.0835 7.6C88.0835 5.62 87.9035 4.21 87.5435 3.37C92.2235 1.75 96.6335 0.939998 100.774 0.939998C101.314 1.48 101.584 2.86 101.584 5.08C101.584 9.04 99.9035 18.16 96.5435 32.44C101.404 28.9 105.664 27.13 109.324 27.13C111.604 27.13 113.314 27.85 114.454 29.29C115.654 30.73 116.254 32.65 116.254 35.05C116.254 37.39 115.564 41.26 114.184 46.66C112.804 52 112.114 55.66 112.114 57.64C112.114 59.62 112.354 60.61 112.834 60.61C113.314 60.61 114.574 60.07 116.614 58.99L117.694 58.45L119.314 61.6C118.774 62.08 118.054 62.68 117.154 63.4C116.254 64.12 114.604 65.08 112.204 66.28C109.804 67.48 107.584 68.08 105.544 68.08C103.564 68.08 101.974 67.45 100.774 66.19C99.5735 64.87 98.9735 63.13 98.9735 60.97C98.9735 58.75 99.6335 54.76 100.954 49C102.334 43.18 103.024 39.52 103.024 38.02C103.024 36.46 102.394 35.68 101.134 35.68C99.5735 35.68 97.6235 36.34 95.2835 37.66C91.9835 52.18 90.3335 61.6 90.3335 65.92C87.8135 66.88 83.5235 67.36 77.4635 67.36C77.4035 66.34 77.3735 65.44 77.3735 64.66C77.3735 62.08 79.1435 53.26 82.6835 38.2C86.2835 23.14 88.0835 12.94 88.0835 7.6ZM124.632 67.27H122.922C122.922 64.45 123.762 59.05 125.442 51.07C127.182 43.09 128.052 38.56 128.052 37.48C128.052 35.5 127.212 33.4 125.532 31.18L124.722 30.1L124.812 28.93C128.052 28.03 133.242 27.58 140.382 27.58C141.162 28.6 141.582 30.46 141.642 33.16C146.862 29.14 151.272 27.13 154.872 27.13C157.032 27.13 158.742 27.88 160.002 29.38C161.322 30.88 161.982 32.77 161.982 35.05C161.982 37.27 161.292 41.14 159.912 46.66C158.532 52.18 157.842 55.9 157.842 57.82C157.842 59.68 158.082 60.61 158.562 60.61C158.922 60.61 160.182 60.04 162.342 58.9L163.422 58.36L165.042 61.51C164.502 61.99 163.782 62.59 162.882 63.31C161.982 64.03 160.302 65.02 157.842 66.28C155.442 67.48 153.282 68.08 151.362 68.08C146.982 68.08 144.792 65.59 144.792 60.61C144.792 58.51 145.452 54.64 146.772 49C148.152 43.36 148.842 39.73 148.842 38.11C148.842 36.49 148.332 35.68 147.312 35.68C145.572 35.68 143.442 36.43 140.922 37.93C140.742 38.95 140.142 41.65 139.122 46.03C137.022 55.45 135.972 62.11 135.972 66.01C133.872 66.85 130.092 67.27 124.632 67.27ZM170.335 67.27H168.625C168.625 64.45 169.465 59.05 171.145 51.07C172.885 43.09 173.755 38.56 173.755 37.48C173.755 35.5 172.915 33.4 171.235 31.18L170.425 30.1L170.515 28.93C173.755 28.03 178.945 27.58 186.085 27.58C186.925 28.72 187.345 30.58 187.345 33.16C192.745 29.14 197.035 27.13 200.215 27.13C204.235 27.13 206.605 29.2 207.325 33.34C208.945 32.02 211.045 30.67 213.625 29.29C216.265 27.85 218.605 27.13 220.645 27.13C222.745 27.13 224.485 27.82 225.865 29.2C227.245 30.52 227.935 32.38 227.935 34.78C227.935 37.18 227.275 41.14 225.955 46.66C224.635 52.18 223.975 55.9 223.975 57.82C223.975 59.68 224.245 60.61 224.785 60.61C225.145 60.61 226.375 60.04 228.475 58.9L229.465 58.36L231.085 61.51C229.525 63.07 227.395 64.57 224.695 66.01C222.055 67.39 219.715 68.08 217.675 68.08C213.175 68.08 210.925 65.53 210.925 60.43C210.925 58.57 211.555 54.85 212.815 49.27C214.135 43.63 214.795 39.97 214.795 38.29C214.795 36.55 214.285 35.68 213.265 35.68C211.525 35.68 209.545 36.34 207.325 37.66C207.205 38.86 206.365 42.94 204.805 49.9C203.305 56.86 202.555 62.26 202.555 66.1C200.815 66.88 196.735 67.27 190.315 67.27C190.195 66.61 190.135 65.02 190.135 62.5C190.135 59.98 190.825 55.69 192.205 49.63C193.645 43.57 194.365 39.73 194.365 38.11C194.365 36.49 193.795 35.68 192.655 35.68C190.855 35.68 188.875 36.4 186.715 37.84C186.595 38.38 185.995 41.02 184.915 45.76C182.755 55.24 181.675 61.99 181.675 66.01C179.575 66.85 175.795 67.27 170.335 67.27ZM252.629 32.71C252.629 35.23 251.819 39.58 250.199 45.76C248.579 51.88 247.769 55.9 247.769 57.82C247.769 59.68 248.039 60.61 248.579 60.61C248.939 60.61 250.319 60.04 252.719 58.9L253.799 58.36L255.329 61.51C254.789 61.99 254.069 62.59 253.169 63.31C252.269 64.03 250.589 65.02 248.129 66.28C245.669 67.48 243.389 68.08 241.289 68.08C239.189 68.08 237.539 67.45 236.339 66.19C235.139 64.87 234.539 63.13 234.539 60.97C234.539 58.75 235.289 54.85 236.789 49.27C238.289 43.63 239.039 39.97 239.039 38.29C239.039 35.77 238.259 33.4 236.699 31.18L235.889 30.1L235.979 28.93C239.159 28.03 244.319 27.58 251.459 27.58C252.239 28.48 252.629 30.19 252.629 32.71ZM242.369 17.77C241.169 16.57 240.569 14.98 240.569 13C240.569 11.02 241.379 9.28 242.999 7.78C244.679 6.28 246.599 5.53 248.759 5.53C250.919 5.53 252.599 6.13 253.799 7.33C254.999 8.53 255.599 10.12 255.599 12.1C255.599 14.02 254.729 15.73 252.989 17.23C251.309 18.73 249.419 19.48 247.319 19.48C245.219 19.48 243.569 18.91 242.369 17.77ZM279.22 31.63C276.82 31.63 274.9 33.64 273.46 37.66C272.02 41.62 271.3 45.88 271.3 50.44C271.3 57.64 273.52 61.24 277.96 61.24C279.4 61.24 280.93 60.91 282.55 60.25C284.17 59.53 285.46 58.84 286.42 58.18L287.77 57.1L289.84 59.89C289.36 60.55 288.4 61.42 286.96 62.5C285.52 63.58 284.17 64.48 282.91 65.2C281.65 65.92 280.03 66.58 278.05 67.18C276.07 67.78 274.12 68.08 272.2 68.08C267.52 68.08 264.01 66.55 261.67 63.49C259.33 60.43 258.16 56.32 258.16 51.16C258.16 44.02 260.11 38.23 264.01 33.79C267.97 29.35 273.04 27.13 279.22 27.13C283.24 27.13 286.42 28.06 288.76 29.92C291.16 31.72 292.36 33.97 292.36 36.67C292.36 39.31 291.52 41.59 289.84 43.51C288.34 43.51 286.6 43.18 284.62 42.52C282.64 41.86 281.14 41.05 280.12 40.09L281.47 32.17C280.93 31.81 280.18 31.63 279.22 31.63ZM304.822 7.6C304.822 5.62 304.642 4.21 304.282 3.37C308.962 1.75 313.372 0.939998 317.512 0.939998C318.052 1.48 318.322 2.86 318.322 5.08C318.322 9.04 316.642 18.16 313.282 32.44C318.142 28.9 322.402 27.13 326.062 27.13C328.342 27.13 330.052 27.85 331.192 29.29C332.392 30.73 332.992 32.65 332.992 35.05C332.992 37.39 332.302 41.26 330.922 46.66C329.542 52 328.852 55.66 328.852 57.64C328.852 59.62 329.092 60.61 329.572 60.61C330.052 60.61 331.312 60.07 333.352 58.99L334.432 58.45L336.052 61.6C335.512 62.08 334.792 62.68 333.892 63.4C332.992 64.12 331.342 65.08 328.942 66.28C326.542 67.48 324.322 68.08 322.282 68.08C320.302 68.08 318.712 67.45 317.512 66.19C316.312 64.87 315.712 63.13 315.712 60.97C315.712 58.75 316.372 54.76 317.692 49C319.072 43.18 319.762 39.52 319.762 38.02C319.762 36.46 319.132 35.68 317.872 35.68C316.312 35.68 314.362 36.34 312.022 37.66C308.722 52.18 307.072 61.6 307.072 65.92C304.552 66.88 300.262 67.36 294.202 67.36C294.142 66.34 294.112 65.44 294.112 64.66C294.112 62.08 295.882 53.26 299.422 38.2C303.022 23.14 304.822 12.94 304.822 7.6ZM365.76 29.74C365.88 29.62 366.21 28.84 366.75 27.4C369.57 27.4 373.35 28.24 378.09 29.92C376.59 34.9 375.39 40.12 374.49 45.58C373.59 50.98 373.14 54.85 373.14 57.19C373.14 59.47 373.38 60.61 373.86 60.61C374.22 60.61 375.54 60.04 377.82 58.9L378.9 58.36L380.52 61.51C379.98 61.99 379.26 62.59 378.36 63.31C377.52 64.03 375.9 65.02 373.5 66.28C371.1 67.48 368.94 68.08 367.02 68.08C363.3 68.08 361.14 66.4 360.54 63.04C356.7 66.4 353.22 68.08 350.1 68.08C347.04 68.08 344.43 66.88 342.27 64.48C340.17 62.08 339.12 58.3 339.12 53.14C339.12 45.1 340.77 38.77 344.07 34.15C347.37 29.47 351.36 27.13 356.04 27.13C359.4 27.13 362.64 28 365.76 29.74ZM355.5 60.43C356.94 60.43 358.56 59.86 360.36 58.72C360.78 50.26 362.19 41.89 364.59 33.61C362.79 32.83 361.26 32.44 360 32.44C357.84 32.44 355.98 34.57 354.42 38.83C352.92 43.03 352.17 47.68 352.17 52.78C352.17 57.88 353.28 60.43 355.5 60.43ZM381.822 51.43C381.822 43.93 384.072 38.02 388.572 33.7C393.132 29.32 398.292 27.13 404.052 27.13C407.592 27.13 410.502 28 412.782 29.74C415.062 31.48 416.202 33.82 416.202 36.76C416.202 39.64 415.452 42.07 413.952 44.05C412.512 46.03 410.742 47.56 408.642 48.64C404.382 50.74 400.482 52.06 396.942 52.6L394.782 52.87C395.202 58.51 397.512 61.33 401.712 61.33C403.152 61.33 404.682 60.97 406.302 60.25C407.922 59.53 409.182 58.81 410.082 58.09L411.432 57.01L413.592 59.89C413.112 60.55 412.152 61.42 410.712 62.5C409.272 63.58 407.922 64.48 406.662 65.2C403.182 67.12 399.372 68.08 395.232 68.08C391.092 68.08 387.822 66.61 385.422 63.67C383.022 60.73 381.822 56.65 381.822 51.43ZM394.692 48.46C397.752 47.92 400.182 46.63 401.982 44.59C403.782 42.55 404.682 39.91 404.682 36.67C404.682 33.43 403.722 31.81 401.802 31.81C399.522 31.81 397.752 33.76 396.492 37.66C395.292 41.5 394.692 45.1 394.692 48.46ZM425.06 68.08C423.02 68.08 421.31 67.39 419.93 66.01C418.61 64.63 417.95 62.71 417.95 60.25C417.95 57.73 419.42 49.78 422.36 36.4C425.36 22.96 426.86 13.27 426.86 7.33L426.32 3.37C431 1.75 435.38 0.939998 439.46 0.939998C440.06 1.78 440.36 3.25 440.36 5.34999C440.36 10.15 438.83 19.45 435.77 33.25C432.77 46.99 431.27 55 431.27 57.28C431.27 59.5 431.54 60.61 432.08 60.61L438.38 58.36L440 61.51C437.96 63.13 435.47 64.63 432.53 66.01C429.65 67.39 427.16 68.08 425.06 68.08Z"/></svg>