<?xml version="1.0" encoding="iso-8859-1"?>
<!-- Generator: Adobe Illustrator 19.0.0, SVG Export Plug-In . SVG Version: 6.00 Build 0)  -->
<svg version="1.1" id="Capa_1" xmlns="http://www.w3.org/2000/svg" xmlns:xlink="http://www.w3.org/1999/xlink" x="0px" y="0px"
	 viewBox="0 0 512 512" style="enable-background:new 0 0 512 512;" xml:space="preserve">
<g>
	<path style="fill:#004A7B;" d="M75,512c-8.291,0-15-6.709-15-15v-61c0-8.291,6.709-15,15-15s15,6.709,15,15v61
		C90,505.291,83.291,512,75,512z"/>
	<path style="fill:#004A7B;" d="M271,436v61c0,8.399-6.599,15-15,15s-15-6.601-15-15v-61c0-8.401,6.599-15,15-15
		S271,427.599,271,436z"/>
</g>
<g>
	<path style="fill:#00345B;" d="M437,512c-8.291,0-15-6.709-15-15v-61c0-8.291,6.709-15,15-15s15,6.709,15,15v61
		C452,505.291,445.291,512,437,512z"/>
	<path style="fill:#00345B;" d="M271,436v61c0,8.399-6.599,15-15,15v-91C264.401,421,271,427.599,271,436z"/>
</g>
<path style="fill:#004A7B;" d="M271,226v120c0,8.399-6.599,15-15,15s-15-6.601-15-15V226c0-8.401,6.599-15,15-15
	S271,217.599,271,226z"/>
<path style="fill:#00345B;" d="M271,226v120c0,8.399-6.599,15-15,15V211C264.401,211,271,217.599,271,226z"/>
<path style="fill:#004A7B;" d="M452,316v30c0,8.399-6.599,15-15,15s-15-6.601-15-15v-30c0-8.401-6.599-15-15-15H105
	c-8.401,0-15,6.599-15,15v30c0,8.399-6.599,15-15,15s-15-6.601-15-15v-30c0-24.901,20.099-45,45-45h302
	C431.901,271,452,291.099,452,316z"/>
<path style="fill:#00345B;" d="M452,316v30c0,8.399-6.599,15-15,15s-15-6.601-15-15v-30c0-8.401-6.599-15-15-15H256v-30h151
	C431.901,271,452,291.099,452,316z"/>
<g>
	<path style="fill:#17ACE8;" d="M105,451H45c-24.814,0-45-20.186-45-45v-30c0-24.814,20.186-45,45-45h60c24.814,0,45,20.186,45,45
		v30C150,430.814,129.814,451,105,451z"/>
	<path style="fill:#17ACE8;" d="M286,331h-60c-24.901,0-45,20.099-45,45v30c0,24.899,20.099,45,45,45h60c24.901,0,45-20.101,45-45
		v-30C331,351.099,310.901,331,286,331z"/>
</g>
<g>
	<path style="fill:#1689FC;" d="M467,451h-60c-24.814,0-45-20.186-45-45v-30c0-24.814,20.186-45,45-45h60c24.814,0,45,20.186,45,45
		v30C512,430.814,491.814,451,467,451z"/>
	<path style="fill:#1689FC;" d="M105,512H45c-8.291,0-15-6.709-15-15s6.709-15,15-15h60c8.291,0,15,6.709,15,15S113.291,512,105,512
		z"/>
	<path style="fill:#1689FC;" d="M301,497c0,8.399-6.599,15-15,15h-60c-8.401,0-15-6.601-15-15c0-8.401,6.599-15,15-15h60
		C294.401,482,301,488.599,301,497z"/>
</g>
<g>
	<path style="fill:#136EF1;" d="M467,512h-60c-8.291,0-15-6.709-15-15s6.709-15,15-15h60c8.291,0,15,6.709,15,15
		S475.291,512,467,512z"/>
	<path style="fill:#136EF1;" d="M301,497c0,8.399-6.599,15-15,15h-30v-30h30C294.401,482,301,488.599,301,497z"/>
</g>
<path style="fill:#1689FC;" d="M331,376v30c0,24.899-20.099,45-45,45h-30V331h30C310.901,331,331,351.099,331,376z"/>
<path style="fill:#A8AFF1;" d="M286,151h-60c-8.401,0-15,6.599-15,15v60c0,8.399,6.599,15,15,15h60c8.401,0,15-6.601,15-15v-60
	C301,157.599,294.401,151,286,151z"/>
<path style="fill:#8A93E6;" d="M301,166v60c0,8.399-6.599,15-15,15h-30v-90h30C294.401,151,301,157.599,301,166z"/>
<path style="fill:#E1E4FB;" d="M346,0H166c-24.901,0-45,20.099-45,45v91c0,24.899,20.099,45,45,45h180c24.901,0,45-20.101,45-45V45
	C391,20.099,370.901,0,346,0z"/>
<path style="fill:#C5C9F7;" d="M391,45v91c0,24.899-20.099,45-45,45h-90V0h90C370.901,0,391,20.099,391,45z"/>
<path style="fill:#E1E4FB;" d="M331,226c0,8.399-6.599,15-15,15H196c-8.401,0-15-6.601-15-15c0-8.401,6.599-15,15-15h120
	C324.401,211,331,217.599,331,226z"/>
<path style="fill:#C5C9F7;" d="M316,241h-60v-30h60c8.401,0,15,6.599,15,15C331,234.399,324.401,241,316,241z"/>
<path style="fill:#004A7B;" d="M346,30H166c-8.401,0-15,6.599-15,15v91c0,8.399,6.599,15,15,15h180c8.401,0,15-6.601,15-15V45
	C361,36.599,354.401,30,346,30z"/>
<path style="fill:#00345B;" d="M346,151h-90V30h90c8.401,0,15,6.599,15,15v91C361,144.399,354.401,151,346,151z"/>
<g>
</g>
<g>
</g>
<g>
</g>
<g>
</g>
<g>
</g>
<g>
</g>
<g>
</g>
<g>
</g>
<g>
</g>
<g>
</g>
<g>
</g>
<g>
</g>
<g>
</g>
<g>
</g>
<g>
</g>
</svg>
